<?xml version="1.0" encoding="UTF-8"?>
<svg width="98px" height="66px" viewBox="0 0 98 66" version="1.1" xmlns="http://www.w3.org/2000/svg" xmlns:xlink="http://www.w3.org/1999/xlink">
    <!-- Generator: Sketch 62 (91390) - https://sketch.com -->
    <title>noun_fast_235437</title>
    <desc>Created with Sketch.</desc>
    <g id="Landing-page" stroke="none" stroke-width="1" fill="none" fill-rule="evenodd">
        <g id="Right_Invoices_Homepage_1" transform="translate(-785.000000, -3200.000000)" stroke="#193E63">
            <g id="Group-71" transform="translate(-154.000000, 0.000000)">
                <g id="Group-67">
                    <g id="noun_fast_235437" transform="translate(940.000000, 3201.000000)">
                        <g id="Group-30" transform="translate(31.561644, 0.000000)" fill="#18D2A6" stroke-width="1.4784">
                            <path d="M32.2360799,0.335737705 C30.9113964,0.335737705 29.8370716,1.4027541 29.8370716,2.71842623 L29.8370716,14.9245902 C29.8370716,16.2402623 30.9113964,17.3072787 32.2360799,17.3072787 C33.5607635,17.3072787 34.6350883,16.2402623 34.6350883,14.9245902 L34.6350883,5.20498361 C48.4513056,6.41468852 59.324486,17.972459 59.324486,32.0041967 C59.324486,46.8385574 47.1731022,58.9072787 32.2371363,58.9072787 C17.3011704,58.9072787 5.14873029,46.8385574 5.14873029,32.0041967 C5.14873029,23.4439344 9.31081428,15.3159344 16.2817768,10.2599344 C17.351876,9.48354098 17.585333,7.99370492 16.8046782,6.93088525 C16.0240234,5.86806557 14.5229266,5.63514754 13.4528273,6.41154098 C5.24908511,12.3603934 0.350713676,21.9278689 0.350713676,32.0041967 C0.350713676,49.4657049 14.653916,63.6726557 32.2360799,63.6726557 C49.8171875,63.6726557 64.1214462,49.4667541 64.1214462,32.0041967 C64.1214462,14.5416393 49.8182439,0.335737705 32.2360799,0.335737705 Z" id="Path"></path>
                            <path d="M16.1708583,23.0567869 C15.504291,24.1940984 15.8909212,25.652459 17.0360225,26.3144918 L30.4286369,34.0626885 C30.8078724,34.2830164 31.2240808,34.3868852 31.633951,34.3868852 C32.4600296,34.3868852 33.2639245,33.9630164 33.7086548,33.2034098 C34.3752221,32.0660984 33.988592,30.6077377 32.8434907,29.9457049 L19.4508763,22.1975082 C18.3068313,21.5344262 16.8374256,21.9184262 16.1708583,23.0567869 Z" id="Path"></path>
                        </g>
                        <path d="M12.6660402,13.7469388 L30.1190672,13.7469388 C31.0365978,13.7469388 31.7812603,12.5766531 31.7812603,11.1346939 C31.7812603,9.69273469 31.0365978,8.52244898 30.1190672,8.52244898 L12.6660402,8.52244898 C11.7485096,8.52244898 11.0038471,9.69273469 11.0038471,11.1346939 C11.0038471,12.5766531 11.7476785,13.7469388 12.6660402,13.7469388 Z" id="Path" stroke-width="1.848" fill="#FFFFFF"></path>
                        <path d="M2.32500063,27.6623673 L25.2354248,27.6623673 C26.4398585,27.6623673 27.41737,26.4920816 27.41737,25.0501224 C27.41737,23.6081633 26.4398585,22.4378776 25.2354248,22.4378776 L2.32500063,22.4378776 C1.1205669,22.4378776 0.143055471,23.6081633 0.143055471,25.0501224 C0.143055471,26.4920816 1.11947593,27.6623673 2.32500063,27.6623673 Z" id="Path" stroke-width="1.848" fill="#FFFFFF"></path>
                        <path d="M27.41737,38.965551 C27.41737,37.5235918 26.4398585,36.3533061 25.2354248,36.3533061 L2.32500063,36.3533061 C1.1205669,36.3533061 0.143055471,37.5235918 0.143055471,38.965551 C0.143055471,40.4075102 1.1205669,41.5777959 2.32500063,41.5777959 L25.2354248,41.5777959 C26.4398585,41.5777959 27.41737,40.4088163 27.41737,38.965551 Z" id="Path" stroke-width="1.848" fill="#FFFFFF"></path>
                        <path d="M31.7812603,52.8809796 C31.7812603,51.4390204 31.0365978,50.2687347 30.1190672,50.2687347 L12.6660402,50.2687347 C11.7485096,50.2687347 11.0038471,51.4390204 11.0038471,52.8809796 C11.0038471,54.3229388 11.7485096,55.4932245 12.6660402,55.4932245 L30.1190672,55.4932245 C31.0365978,55.4932245 31.7812603,54.3242449 31.7812603,52.8809796 Z" id="Path" stroke-width="1.848" fill="#FFFFFF"></path>
                    </g>
                </g>
            </g>
        </g>
    </g>
</svg>