<?xml version="1.0" encoding="UTF-8"?>
<svg width="84px" height="97px" viewBox="0 0 84 97" version="1.1" xmlns="http://www.w3.org/2000/svg" xmlns:xlink="http://www.w3.org/1999/xlink">
    <!-- Generator: Sketch 62 (91390) - https://sketch.com -->
    <title>Group 28</title>
    <desc>Created with Sketch.</desc>
    <g id="Landing-page" stroke="none" stroke-width="1" fill="none" fill-rule="evenodd">
        <g id="Right_Invoices_Homepage_1" transform="translate(-784.000000, -3471.000000)" stroke="#193E63">
            <g id="Group-71" transform="translate(-154.000000, 0.000000)">
                <g id="Group-67">
                    <g id="Group-28" transform="translate(940.000000, 3472.000000)">
                        <g id="noun_grow_1720349" transform="translate(0.000000, 34.484920)" fill="#18D2A6" fill-rule="nonzero" stroke-width="4.0755">
                            <path d="M78.8888474,3.50647436 C78.5944214,2.00172541 77.4145069,0.825187893 75.9054388,0.531604666 C75.3012042,0.418634931 60.9883961,-2.29263871 52.0004058,6.66962694 C45.1461191,13.5231242 45.1083545,23.4644609 45.5237658,28.0397352 C43.8243559,30.0731904 42.3326516,32.0125042 41.161947,33.6882219 C38.9748436,31.0034725 36.588985,28.4859804 34.0244253,26.1569063 C34.1495119,19.7144683 31.7829713,13.4711984 27.4156089,8.72191047 C18.4276186,-0.240355191 4.11481056,2.47091845 3.51057592,2.58388819 C2.00150785,2.87747142 0.82159329,4.05400893 0.527167383,5.55875788 C0.413873388,6.16126314 -2.3051825,20.4331063 6.68280779,29.395372 C12.2153312,34.7426061 19.7871466,35.8346469 24.9042587,35.8346469 C26.8026824,35.8437143 28.6982249,35.6862046 30.5689584,35.3639397 C31.1115434,35.2440009 31.6208929,35.0061276 32.0606627,34.667293 C48.1672923,51.725723 45.5804128,53.3459142 45.4104718,54.2496721 C45.2120199,55.2420445 45.4224621,56.2722994 45.9943647,57.1082168 C46.5662672,57.9441343 47.4514986,58.5153632 48.4505273,58.693715 L49.1491736,58.693715 C50.9899346,58.7247851 52.5853222,57.4282657 52.9256401,55.6241372 C53.0766988,54.7580359 55.3803434,56.0185729 45.8258831,40.1651534 C46.8266467,38.7153752 48.544939,36.3994956 50.6597602,33.7447068 C51.6416415,33.7447068 52.9822871,33.951818 54.5684031,33.951818 C59.6855152,33.951818 67.2573305,32.8597772 72.789854,27.3430885 C81.7211972,18.3808228 79.0021414,4.10897961 78.8888474,3.50647436 Z M12.0265079,23.8975116 C7.7968654,19.6799748 7.45698342,13.2406999 7.60804208,9.47504203 C11.2712146,9.28675914 17.823384,9.62566835 22.0341441,13.8243768 C23.4481322,15.2592043 24.525143,16.9890648 25.1874937,18.8891866 C22.7139081,17.156984 19.9948522,15.4247814 17.0492083,13.7302354 C15.875403,13.0575653 14.4308669,13.060418 13.2597428,13.7377188 C12.0886187,14.4150196 11.3688282,15.6638704 11.3715095,17.0138412 C11.3741908,18.363812 12.0989364,19.6098101 13.2727418,20.28248 C17.4412611,22.6338284 21.4130963,25.3161163 25.149729,28.3033312 C21.3921448,28.3033312 15.7840921,27.6443411 12.0265079,23.8975116 Z M67.3895068,22.0146826 C64.7160698,24.4597112 61.3001073,25.944119 57.6839879,26.2322194 C58.6380762,25.3960775 59.6405639,24.6165008 60.6862788,23.8975116 C62.2880866,22.6961677 62.6696688,20.4563095 61.555555,18.7949261 C60.4414413,17.1335427 58.21977,16.629432 56.494401,17.6465195 C55.4186844,18.3656867 54.3847864,19.1451772 53.3976984,19.9812274 C53.8911584,16.9891424 55.2646996,14.2106034 57.3441059,11.9980328 C61.5737484,7.78049601 68.0315062,7.4415868 71.8079727,7.59221311 C71.940149,11.357871 71.600267,17.8159741 67.3895068,22.0146826 Z" id="Shape"></path>
                        </g>
                        <path d="M52.9546899,1.90832346 C52.9546899,0.854060077 52.1165201,0 51.0818719,0 L24.6157759,0 C23.5811276,0 22.7429578,0.854060077 22.7429578,1.90832346 C22.7429578,2.96258711 23.5811276,3.81664692 24.6157759,3.81664692 L32.1885658,3.81664692 C36.7023499,3.82197168 40.5880292,7.0635655 41.4847245,11.5713409 L24.6157759,11.5713409 C23.5811276,11.5713409 22.7429578,12.4254007 22.7429578,13.4796644 C22.7429578,14.5328629 23.5811276,15.3879878 24.6157759,15.3879878 L41.4847245,15.3879878 C40.5880292,19.8946982 36.7023499,23.1352274 32.1885658,23.1416167 L24.6157759,23.1416167 C23.8486731,23.1416167 23.1599525,23.6186976 22.8756855,24.343903 C22.5924635,25.0701736 22.7722209,25.8986755 23.3292588,26.4364563 L42.258098,44.6624363 C42.7440692,45.1331278 43.4401055,45.3035138 44.0828414,45.1086348 C44.7245325,44.9137557 45.2167741,44.3834293 45.3714491,43.7189238 C45.5250785,43.0544183 45.319194,42.3558356 44.8311325,41.8883389 L29.3239486,26.9571988 L32.1885658,26.9571988 C38.7674662,26.9486795 44.3430713,22.0213286 45.2826154,15.3869227 L51.0818719,15.3869227 C52.1165201,15.3869227 52.9546899,14.5317981 52.9546899,13.4785993 C52.9546899,12.4243359 52.1165201,11.5702758 51.0818719,11.5702758 L45.2826154,11.5702758 C44.866666,8.61833823 43.5007211,5.8900319 41.3990263,3.81558207 L51.0818719,3.81558207 C52.1165201,3.81558207 52.9546899,2.96152227 52.9546899,1.90832346 L52.9546899,1.90832346 Z" id="Path-Copy-5" stroke-width="0.6" fill="#FFFFFF"></path>
                    </g>
                </g>
            </g>
        </g>
    </g>
</svg>