<?xml version="1.0" encoding="UTF-8"?>
<svg width="89px" height="84px" viewBox="0 0 89 84" version="1.1" xmlns="http://www.w3.org/2000/svg" xmlns:xlink="http://www.w3.org/1999/xlink">
    <!-- Generator: Sketch 62 (91390) - https://sketch.com -->
    <title>noun_growth_1351324</title>
    <desc>Created with Sketch.</desc>
    <g id="Landing-page" stroke="none" stroke-width="1" fill="none" fill-rule="evenodd">
        <g id="Right_Invoices_Homepage_1" transform="translate(-156.000000, -3483.000000)" stroke="#193E63">
            <g id="Group-71" transform="translate(-154.000000, 0.000000)">
                <g id="Group-67">
                    <g id="noun_growth_1351324" transform="translate(355.500000, 3524.500000) scale(-1, 1) translate(-355.500000, -3524.500000) translate(310.000000, 3483.000000)">
                        <path d="M88.2318001,78.2190454 L82.9783654,78.2190454 L82.9783654,22.5167084 C82.9783654,21.2216685 82.0179987,20.1734516 80.8346897,20.1734516 C79.6513807,20.1734516 78.691014,21.2216685 78.691014,22.5167084 L78.691014,78.2190454 L69.3231511,78.2190454 L69.3231511,30.8071507 C69.3231511,29.5121108 68.3627844,28.463894 67.1794754,28.463894 C65.9961664,28.463894 65.0357997,29.5121108 65.0357997,30.8071507 L65.0357997,78.2190454 L55.6679368,78.2190454 L55.6679368,39.1007174 C55.6679368,37.8056775 54.70757,36.7574607 53.524261,36.7574607 C52.340952,36.7574607 51.3805853,37.8056775 51.3805853,39.1007174 L51.3805853,78.2190454 L42.0127224,78.2190454 L42.0127224,47.3911597 C42.0127224,46.097682 41.0537848,45.047903 39.8690467,45.047903 C38.6843086,45.047903 37.725371,46.097682 37.725371,47.3911597 L37.725371,78.2174832 L28.3575081,78.2174832 L28.3575081,55.6847264 C28.3575081,54.3912487 27.3985705,53.3414697 26.2138323,53.3414697 C25.0290942,53.3414697 24.0701566,54.3912487 24.0701566,55.6847264 L24.0701566,78.2190454 L14.7037228,78.2190454 L14.7037228,63.976731 C14.7037228,62.6832532 13.7447852,61.6334742 12.5600471,61.6334742 C11.375309,61.6334742 10.4163714,62.6832532 10.4163714,63.976731 L10.4163714,78.2190454 L5.16436587,78.2190454 C3.97962776,78.2190454 3.02069015,79.2688244 3.02069015,80.5623022 C3.02069015,81.8557799 3.97962776,82.9055589 5.16436587,82.9055589 L88.2318001,82.9055589 C89.4151091,82.9055589 90.3754758,81.8557799 90.3754758,80.5623022 C90.3754758,79.2688244 89.4151091,78.2190454 88.2318001,78.2190454 Z" id="Path" stroke-width="0.6" fill="#18D2A6"></path>
                        <path d="M4.41084039,47.5785689 C4.70950379,47.5785689 5.01383013,47.5168336 5.3038072,47.385517 C38.2383318,32.4549379 54.6152487,22.9425865 71.3932613,11.220905 L69.0503546,18.7052047 C68.7012016,19.8238906 69.3324109,21.0141371 70.4630547,21.3616796 C70.6746039,21.4269319 70.8904112,21.4582364 71.0990469,21.4584127 C72.0150433,21.4591869 72.8590905,20.8756535 73.1455456,19.9662815 L77.3767394,6.44447544 C77.3867159,6.41336177 77.3881171,6.38082621 77.3966634,6.34829669 C77.4109089,6.29596702 77.4251568,6.24646663 77.433685,6.19271748 C77.4407998,6.15735747 77.4450579,6.12340969 77.4507438,6.08804847 C77.4578393,6.03005419 77.4606479,5.97205628 77.4634564,5.91405838 C77.4648576,5.88152282 77.4733775,5.85040794 77.4733775,5.81787118 C77.4733775,5.8051394 77.4690686,5.792404 77.4690578,5.77967222 C77.4690288,5.74572082 77.4647128,5.71176579 77.4632548,5.67781317 C77.4589147,5.6155653 77.4502899,5.55614309 77.4402349,5.49530504 C77.4330512,5.45003046 77.4287256,5.40475829 77.418685,5.36089594 C77.4129437,5.33118362 77.4014862,5.30146648 77.3943158,5.27175296 C77.3785472,5.21373936 77.3584939,5.15855141 77.3384395,5.10194883 C77.3212515,5.05525115 77.3083494,5.00714246 77.2868744,4.96044116 C77.2768532,4.93921307 77.2625426,4.91515208 77.2510899,4.89109351 C77.2238928,4.83731417 77.1938402,4.78636169 77.1623584,4.73540801 C77.1337384,4.68870068 77.1079763,4.64199575 77.0764995,4.59670064 C77.0693472,4.58820675 77.0664807,4.57830184 77.0593272,4.56839331 C77.0507434,4.55706893 77.0393029,4.54715677 77.0292902,4.53583118 C76.9949541,4.48911901 76.9534765,4.44664473 76.9134268,4.40275702 C76.8776665,4.36170221 76.8404772,4.32064619 76.8018625,4.28383289 C76.7818406,4.26542564 76.7632466,4.24560495 76.7417957,4.22719649 C76.700323,4.19038078 76.6531391,4.1592188 76.6088119,4.12664459 C76.5644848,4.09407039 76.5201565,4.06008155 76.4729738,4.03033421 C76.4529555,4.01617088 76.4286478,3.99917465 76.4043426,3.9850077 C76.3585925,3.9595055 76.311417,3.93824601 76.2628113,3.91557068 C76.2113451,3.89006365 76.159879,3.86455661 76.1055585,3.84329109 C76.0755396,3.8319486 76.0469497,3.82060731 76.0169332,3.81209409 C75.9983512,3.80641982 75.9826224,3.7950894 75.9640405,3.78941514 C75.9311647,3.77948487 75.8982963,3.77804245 75.8654218,3.76952682 C75.8125375,3.75675035 75.7610798,3.74114582 75.7053411,3.73261086 C75.672469,3.72692452 75.6395981,3.72265282 75.6052982,3.7183799 C75.5467027,3.71125718 75.4881096,3.70696374 75.4295177,3.70408494 C75.3966493,3.70264252 75.3637747,3.69412689 75.3309075,3.69409911 L60.2848335,3.66723479 L60.2834045,3.66723479 C59.1001829,3.6662356 58.1421262,4.61464998 58.1416967,5.7859723 C58.1412684,6.95870927 59.1009451,7.90874439 60.2855968,7.91116022 L68.6667552,7.92531661 C52.1814993,19.4237323 35.9759563,28.8103254 3.51282319,43.5276922 C2.437194,44.0148343 1.96669455,45.2734671 2.46061249,46.3391092 C2.82281752,47.1188824 3.59916187,47.5778822 4.41084039,47.5785689 Z" id="Path" stroke-width="1.2" fill="#FFFFFF" transform="translate(39.868881, 25.622902) rotate(-5.000000) translate(-39.868881, -25.622902) "></path>
                    </g>
                </g>
            </g>
        </g>
    </g>
</svg>