<?xml version="1.0" encoding="UTF-8"?>
<svg width="79px" height="93px" viewBox="0 0 79 93" version="1.1" xmlns="http://www.w3.org/2000/svg" xmlns:xlink="http://www.w3.org/1999/xlink">
    <!-- Generator: Sketch 62 (91390) - https://sketch.com -->
    <title>noun_click_1599878</title>
    <desc>Created with Sketch.</desc>
    <g id="Landing-page" stroke="none" stroke-width="1" fill="none" fill-rule="evenodd">
        <g id="Right_Invoices_Homepage_1" transform="translate(-156.000000, -3175.000000)">
            <g id="Group-71" transform="translate(-154.000000, 0.000000)">
                <g id="Group-67">
                    <g id="noun_click_1599878" transform="translate(310.000000, 3176.000000)">
                        <g id="Group">
                            <path d="M67.5016447,42.8881579 C64.0030839,43.1916118 61.6364104,46.5296053 62.4596012,49.7664474 L61.8422081,47.0353618 C61.224815,44.203125 58.5494449,42.1800987 55.6682771,42.4835526 C52.1697163,42.7870066 49.8030428,46.125 50.6262336,49.3618421 L50.0088405,46.6307566 C49.3914474,43.7985197 46.7160773,41.7754934 43.8349095,42.0789474 C40.3363487,42.3824013 37.9696752,45.7203947 38.792866,48.9572368 L33.2363281,25.4901316 C32.5160362,22.4555921 29.4290707,20.5337171 26.3421053,21.2417763 C23.2551398,21.9498355 21.3000617,24.984375 22.0203536,28.0189145 L32.0015419,70.4013158 C32.1044408,71.0082237 31.3841488,71.4128289 30.8696546,71.0082237 C27.9884868,67.9736842 24.3870271,63.7253289 24.2841283,63.7253289 C22.3290502,61.3988487 18.7275905,60.9942434 16.3609169,62.9161184 C13.9942434,64.8379934 13.582648,68.3782895 15.5377262,70.7047697 C15.7435238,71.0082237 24.0466694,75.8511513 30.1177015,81.2121711 C37.8351151,87.9893092 41.3969984,87.1677632 44.2781661,88.2804276 C47.1593339,89.3930921 49.9376028,89.7976974 51.5839844,89.4942434 C53.230366,89.0896382 65.7840255,86.2574013 65.7840255,86.2574013 C68.2535979,85.6504934 70.3115748,83.9309211 71.2376645,81.6044408 L72.9869449,77.2549342 C76.2797081,68.9605263 78.1002262,66.7598684 76.0422492,57.7574013 L73.6755757,47.5411184 C73.0581826,44.6077303 70.3828125,42.5847039 67.5016447,42.8881579 Z" id="Path" stroke="#18D2A6" stroke-width="2.9754"></path>
                            <path d="M24.5928248,13.9588816 C25.827611,13.6554276 26.547903,12.4416118 26.2392064,11.3289474 L24.0783306,2.32648026 C23.8725329,1.01151316 22.6377467,0.303453947 21.4029605,0.606907895 C20.1681743,0.910361842 19.4478824,2.12417763 19.7565789,3.23684211 L21.9174548,12.2393092 C22.1232525,13.453125 23.3580387,14.1611842 24.5928248,13.9588816 Z" id="Path" stroke="#193E63" stroke-width="1.3338" fill="#FFFFFF"></path>
                            <path d="M13.0681538,20.5337171 C13.582648,20.8371711 14.2000411,20.9383224 14.8174342,20.8371711 C15.3319285,20.7360197 15.8464227,20.3314145 16.2580181,19.8256579 C16.8754112,18.8141447 16.5667146,17.3980263 15.5377262,16.7911184 L7.51161595,11.9358553 C6.48262747,11.3289474 5.04204359,11.6324013 4.42465049,12.6439145 C3.8072574,13.6554276 4.11595395,15.0715461 5.14494243,15.6784539 L13.0681538,20.5337171 Z" id="Path" stroke="#193E63" stroke-width="1.3338" fill="#FFFFFF"></path>
                            <path d="M14.5087377,29.7384868 C14.2000411,28.5246711 12.9652549,27.8166118 11.8333676,28.1200658 L2.67537007,30.2442434 C1.44058388,30.5476974 0.720291941,31.7615132 1.02898849,32.8741776 C1.33768503,34.0879934 2.57247122,34.7960526 3.70435855,34.4925987 L12.8623561,32.3684211 C14.0971423,32.0649671 14.8174342,30.9523026 14.5087377,29.7384868 Z" id="Path" stroke="#193E63" stroke-width="1.3338" fill="#FFFFFF"></path>
                            <path d="M40.6450452,23.7705592 C40.9537418,24.984375 42.188528,25.6924342 43.3204153,25.3889803 L52.4784128,23.2648026 C53.713199,22.9613487 54.433491,21.7475329 54.1247944,20.6348684 C53.8160979,19.4210526 52.5813117,18.7129934 51.4494243,19.0164474 L42.2914268,21.140625 C41.0566406,21.3429276 40.3363487,22.5567434 40.6450452,23.7705592 Z" id="Path" stroke="#193E63" stroke-width="1.3338" fill="#FFFFFF"></path>
                            <path d="M36.4261924,15.8807566 C36.9406867,15.7796053 37.4551809,15.375 37.8667763,14.8692434 L42.8059211,6.97944079 C43.4233141,5.96792763 43.1146176,4.55180921 42.0856291,3.94490132 C41.0566406,3.33799342 39.6160567,3.64144737 38.9986637,4.65296053 L33.9566201,12.5427632 C33.339227,13.5542763 33.6479235,14.9703947 34.676912,15.5773026 C35.1914062,15.8807566 35.8087993,15.9819079 36.4261924,15.8807566 Z" id="Path" stroke="#193E63" stroke-width="1.3338" fill="#FFFFFF"></path>
                        </g>
                    </g>
                </g>
            </g>
        </g>
    </g>
</svg>